<svg width="186" height="93" viewBox="0 0 186 93" fill="none" xmlns="http://www.w3.org/2000/svg">
<g clip-path="url(#clip0_1878_41091)">
<path d="M80.922 29.5814H77.0186V51.1656H80.922V29.5814Z" fill="#E8E9E9"/>
<path d="M41.7902 22.6539C49.7254 22.6539 56.1817 29.1221 56.1817 37.0722C56.1817 45.0224 49.7255 51.4909 41.7902 51.4909C39.1256 51.4909 36.5215 50.7462 34.2728 49.3663L32.4675 54.3496H28.564L32.8418 42.5492H36.7428L35.5517 45.8363C37.3641 47.1311 39.5491 47.8368 41.7902 47.8368C47.7148 47.8368 52.5346 43.008 52.5346 37.0722C52.5346 31.1365 47.7148 26.3076 41.7902 26.3076C35.8656 26.3077 31.0458 31.1365 31.0458 37.0722H27.3989C27.399 29.1221 33.855 22.654 41.7902 22.6539Z" fill="#E8E9E9"/>
<path d="M96.0513 46.8745L88.6423 29.5814H84.5791L94.0093 51.1656H97.9939L107.424 29.5814H103.602L96.0513 46.8745Z" fill="#E8E9E9"/>
<path d="M61.2715 51.1656V29.7834H64.976V35.5932L64.6147 34.1401C65.2038 32.6608 66.1986 31.5329 67.594 30.7513C68.9895 29.9722 70.7069 29.5814 72.749 29.5814V33.3322C72.5866 33.306 72.4322 33.2929 72.2856 33.2929H71.8641C69.7958 33.2929 68.1595 33.9119 66.9526 35.1473C65.7457 36.3854 65.1409 38.1716 65.1409 40.5139V51.1656H61.2741H61.2715Z" fill="#E8E9E9"/>
<path d="M109.289 36.9936C109.289 34.9372 109.66 33.0093 110.401 31.21C111.142 29.4133 112.137 27.8946 113.386 26.6592C114.635 25.4212 116.116 24.4454 117.831 23.7293C119.546 23.0133 121.355 22.6539 123.253 22.6539C125.151 22.6539 126.958 23.0133 128.675 23.7293C130.39 24.4454 131.872 25.4238 133.121 26.6592C134.369 27.8972 135.364 29.4133 136.105 31.21C136.846 33.0067 137.218 34.9346 137.218 36.9936C137.218 39.0526 136.846 41.0251 136.105 42.8349C135.364 44.6448 134.369 46.1818 133.121 47.4461C131.872 48.7103 130.39 49.6991 128.675 50.4152C126.96 51.1313 125.151 51.4906 123.253 51.4906C121.355 51.4906 119.549 51.1313 117.831 50.4152C116.116 49.6991 114.635 48.7103 113.386 47.4461C112.137 46.1818 111.142 44.6474 110.401 42.8349C109.66 41.0251 109.289 39.0788 109.289 36.9936ZM112.993 36.9936C112.993 40.1464 113.988 42.73 115.978 44.7496C117.967 46.7693 120.392 47.7766 123.251 47.7766C126.109 47.7766 128.534 46.7667 130.523 44.7496C132.513 42.73 133.508 40.1464 133.508 36.9936C133.508 33.8408 132.513 31.3464 130.523 29.3556C128.534 27.3621 126.109 26.3654 123.251 26.3654C120.392 26.3654 117.967 27.3621 115.978 29.3556C113.988 31.349 112.993 33.8959 112.993 36.9936Z" fill="#E8E9E9"/>
<path d="M158.748 43.4416C158.748 45.6816 157.863 47.536 156.096 49.0101C154.326 50.4789 152.093 51.216 149.386 51.216H139.124V47.6226H149.386C151.025 47.6226 152.258 47.2186 153.326 46.4108C154.392 45.6003 154.926 44.5878 154.926 43.3629C154.926 42.2665 154.421 41.3642 153.405 40.6455C152.392 39.9295 150.818 39.3629 148.687 38.9458C142.393 37.6973 139.249 34.9485 139.249 30.7019C139.249 28.4619 140.092 26.6075 141.783 25.1334C143.475 23.6619 145.629 22.9275 148.253 22.9275H158.513V26.5209H148.253C146.721 26.5209 145.538 26.9065 144.551 27.675C143.564 28.4409 143.069 29.4403 143.069 30.6652C143.069 31.7852 143.561 32.6954 144.551 33.3983C145.538 34.1013 147.124 34.6783 149.308 35.119C152.376 35.7458 154.717 36.7714 156.329 38.2062C157.939 39.6383 158.748 41.3852 158.748 43.4416Z" fill="#E8E9E9"/>
</g>
<path d="M154.53 70.4689C153.693 70.4689 152.951 70.2859 152.302 69.9198C151.654 69.5538 151.142 69.0519 150.765 68.414C150.389 67.7656 150.2 67.0336 150.2 66.2179C150.2 65.3917 150.389 64.6597 150.765 64.0218C151.142 63.3839 151.654 62.8871 152.302 62.5316C152.951 62.1656 153.693 61.9825 154.53 61.9825C155.356 61.9825 156.093 62.1656 156.742 62.5316C157.4 62.8871 157.913 63.3839 158.279 64.0218C158.655 64.6492 158.844 65.3813 158.844 66.2179C158.844 67.044 158.655 67.776 158.279 68.414C157.913 69.0519 157.4 69.5538 156.742 69.9198C156.093 70.2859 155.356 70.4689 154.53 70.4689ZM154.53 69.1512C155.063 69.1512 155.539 69.0309 155.957 68.7904C156.386 68.5499 156.721 68.21 156.961 67.7708C157.202 67.3211 157.322 66.8035 157.322 66.2179C157.322 65.6218 157.202 65.1094 156.961 64.6806C156.721 64.2414 156.386 63.9015 155.957 63.661C155.539 63.4205 155.063 63.3002 154.53 63.3002C153.997 63.3002 153.521 63.4205 153.102 63.661C152.684 63.9015 152.349 64.2414 152.098 64.6806C151.848 65.1094 151.722 65.6218 151.722 66.2179C151.722 66.8035 151.848 67.3211 152.098 67.7708C152.349 68.21 152.684 68.5499 153.102 68.7904C153.521 69.0309 153.997 69.1512 154.53 69.1512Z" fill="#377DE1"/>
<path d="M146.588 70.3747V62.0609H148.094V70.3747H146.588ZM147.341 60.4609C147.048 60.4609 146.803 60.3668 146.604 60.1786C146.416 59.9903 146.322 59.7603 146.322 59.4884C146.322 59.206 146.416 58.9707 146.604 58.7825C146.803 58.5942 147.048 58.5001 147.341 58.5001C147.634 58.5001 147.874 58.5942 148.063 58.7825C148.261 58.9603 148.361 59.1851 148.361 59.457C148.361 59.7393 148.267 59.9799 148.078 60.1786C147.89 60.3668 147.644 60.4609 147.341 60.4609Z" fill="#377DE1"/>
<path d="M139.331 70.4687C138.526 70.4687 137.804 70.291 137.166 69.9354C136.539 69.5799 136.042 69.0831 135.676 68.4452C135.31 67.8073 135.127 67.0648 135.127 66.2177C135.127 65.3707 135.31 64.6334 135.676 64.006C136.042 63.3681 136.539 62.8713 137.166 62.5158C137.804 62.1602 138.526 61.9824 139.331 61.9824C140.032 61.9824 140.664 62.1393 141.229 62.453C141.794 62.7667 142.243 63.2373 142.578 63.8648C142.923 64.4922 143.096 65.2766 143.096 66.2177C143.096 67.1589 142.928 67.9432 142.594 68.5707C142.269 69.1982 141.825 69.674 141.26 69.9982C140.696 70.3119 140.052 70.4687 139.331 70.4687ZM139.456 69.1511C139.979 69.1511 140.45 69.0308 140.868 68.7903C141.297 68.5498 141.632 68.2099 141.872 67.7707C142.123 67.321 142.249 66.8034 142.249 66.2177C142.249 65.6217 142.123 65.1092 141.872 64.6805C141.632 64.2413 141.297 63.9014 140.868 63.6609C140.45 63.4203 139.979 63.3001 139.456 63.3001C138.923 63.3001 138.447 63.4203 138.029 63.6609C137.611 63.9014 137.276 64.2413 137.025 64.6805C136.774 65.1092 136.649 65.6217 136.649 66.2177C136.649 66.8034 136.774 67.321 137.025 67.7707C137.276 68.2099 137.611 68.5498 138.029 68.7903C138.447 69.0308 138.923 69.1511 139.456 69.1511ZM142.296 70.3746V68.1315L142.39 66.2021L142.233 64.2726V58.7354H143.739V70.3746H142.296Z" fill="#377DE1"/>
<path d="M128.778 70.469C128.067 70.469 127.439 70.3383 126.896 70.0769C126.362 69.8154 125.944 69.4181 125.641 68.8847C125.348 68.3409 125.201 67.6612 125.201 66.8455V62.0612H126.707V66.6729C126.707 67.4886 126.901 68.1004 127.288 68.5083C127.685 68.9161 128.239 69.12 128.95 69.12C129.473 69.12 129.928 69.0154 130.315 68.8063C130.702 68.5867 131 68.273 131.209 67.8651C131.418 67.4468 131.523 66.9448 131.523 66.3592V62.0612H133.029V70.3749H131.601V68.1318L131.837 68.7279C131.565 69.2821 131.157 69.7109 130.613 70.0141C130.069 70.3174 129.458 70.469 128.778 70.469Z" fill="#377DE1"/>
<path d="M121.64 70.4687C120.803 70.4687 120.155 70.2439 119.695 69.7942C119.235 69.3445 119.005 68.7014 119.005 67.8648V60.2412H120.51V67.802C120.51 68.2517 120.62 68.5968 120.84 68.8373C121.07 69.0779 121.394 69.1981 121.812 69.1981C122.283 69.1981 122.675 69.0674 122.989 68.806L123.459 69.8883C123.229 70.087 122.952 70.2334 122.628 70.3275C122.314 70.4217 121.985 70.4687 121.64 70.4687ZM117.593 63.3001V62.0608H122.895V63.3001H117.593Z" fill="#377DE1"/>
<path d="M112.462 70.5C111.625 70.5 110.825 70.3745 110.061 70.1235C109.298 69.8621 108.697 69.5274 108.258 69.1196L108.838 67.8961C109.256 68.2621 109.79 68.5653 110.438 68.8059C111.086 69.0464 111.761 69.1666 112.462 69.1666C113.099 69.1666 113.617 69.0934 114.014 68.947C114.412 68.8006 114.705 68.6019 114.893 68.351C115.081 68.0895 115.175 67.7967 115.175 67.4725C115.175 67.096 115.05 66.7928 114.799 66.5627C114.558 66.3326 114.239 66.1496 113.842 66.0137C113.455 65.8673 113.026 65.7418 112.556 65.6372C112.085 65.5326 111.609 65.4124 111.128 65.2764C110.658 65.13 110.224 64.947 109.826 64.7274C109.439 64.5078 109.126 64.215 108.885 63.849C108.644 63.4725 108.524 62.9915 108.524 62.4058C108.524 61.8411 108.671 61.3235 108.963 60.8529C109.267 60.3718 109.727 59.9901 110.344 59.7078C110.971 59.415 111.766 59.2686 112.728 59.2686C113.366 59.2686 113.999 59.3522 114.626 59.5195C115.254 59.6869 115.797 59.9274 116.258 60.2411L115.74 61.496C115.269 61.1823 114.773 60.9575 114.25 60.8215C113.727 60.6751 113.22 60.6019 112.728 60.6019C112.111 60.6019 111.604 60.6803 111.207 60.8372C110.809 60.9941 110.516 61.2032 110.328 61.4646C110.15 61.7261 110.061 62.0189 110.061 62.3431C110.061 62.73 110.182 63.0385 110.422 63.2686C110.673 63.4986 110.992 63.6817 111.379 63.8176C111.777 63.9535 112.211 64.079 112.681 64.1941C113.152 64.2986 113.622 64.4189 114.093 64.5549C114.574 64.6908 115.008 64.8686 115.395 65.0882C115.792 65.3078 116.111 65.6006 116.352 65.9666C116.592 66.3326 116.713 66.8032 116.713 67.3784C116.713 67.9327 116.561 68.4503 116.258 68.9314C115.954 69.4019 115.484 69.7836 114.846 70.0765C114.218 70.3588 113.424 70.5 112.462 70.5Z" fill="#377DE1"/>
<defs>
<clipPath id="clip0_1878_41091">
<rect width="131.687" height="32" fill="white" transform="translate(27.1565 22.5001)"/>
</clipPath>
</defs>
</svg>
