<svg width="186" height="93" viewBox="0 0 186 93" fill="none" xmlns="http://www.w3.org/2000/svg">
<g clip-path="url(#clip0_1108_28730)">
<rect x="5.81567" y="16.5" width="60" height="60" rx="14.4" fill="#080D0F"/>
<g filter="url(#filter0_f_1108_28730)">
<path d="M-1.68148 63.3828C6.01808 59.0721 16.8718 57.6029 31.6881 63.06C45.1464 68.0171 51.4693 70.3181 57.1688 71.4701C62.6641 72.5807 67.7112 72.6444 78.7802 72.4696L79.0076 86.8677C68.1361 87.0394 61.5669 87.0503 54.3158 85.5848C47.269 84.1605 39.715 81.362 26.7114 76.5724C15.0658 72.2831 8.71235 74.0668 5.35321 75.9475C1.09473 78.3317 0.692614 80.5427 -1.81191 83.2344L-12.3536 73.4251C-12.9901 74.1092 -8.48169 67.1901 -1.68148 63.3828Z" fill="#797979"/>
</g>
<g filter="url(#filter1_f_1108_28730)">
<path d="M6.05209 2.4978C14.7736 1.15607 25.4546 3.58044 37.422 13.8802C48.2925 23.236 53.4093 27.6054 58.3447 30.6802C63.1031 33.6448 67.8084 35.4718 78.2378 39.1839L73.4091 52.7501C63.1657 49.1042 57.0086 46.8141 50.7298 42.9023C44.6279 39.1006 38.5321 33.8342 28.0288 24.7945C18.6225 16.6989 12.0467 16.1449 8.24173 16.7302C3.418 17.4723 2.26712 19.4026 -1.02135 21.0468L-7.4608 8.16733C-8.29653 8.58519 -1.65076 3.68285 6.05209 2.4978Z" fill="#505050"/>
</g>
<g filter="url(#filter2_d_1108_28730)">
<path d="M35.816 28.5C44.8458 28.5 52.1925 35.8465 52.1925 44.8763C52.1925 53.9061 44.8458 61.253 35.816 61.253C32.7839 61.253 29.8206 60.4072 27.2617 58.8399L25.2074 64.5H20.7655L25.6334 51.097H30.0724L28.717 54.8306C30.7794 56.3012 33.2658 57.1027 35.816 57.1027C42.5578 57.1027 48.0424 51.6181 48.0424 44.8763C48.0424 38.1345 42.5578 32.6498 35.816 32.6498C29.0743 32.6499 23.5896 38.1346 23.5895 44.8763H19.4397C19.4397 35.8466 26.7863 28.5 35.816 28.5Z" fill="url(#paint0_linear_1108_28730)" shape-rendering="crispEdges"/>
</g>
<g style="mix-blend-mode:soft-light">
<rect x="4.36963" y="13.9253" width="62.8922" height="65.1492" fill="#377DE1"/>
</g>
</g>
<g clip-path="url(#clip1_1108_28730)">
<g clip-path="url(#clip2_1108_28730)">
<path d="M119.678 29.6968H116.647V46.4569H119.678V29.6968Z" fill="#080D0F"/>
<path d="M89.2923 24.3176C95.454 24.3176 100.467 29.3402 100.467 35.5134C100.467 41.6868 95.454 46.7095 89.2923 46.7095C87.2232 46.7095 85.2011 46.1313 83.455 45.0598L82.0532 48.9294H79.0221L82.3439 39.7663H85.373L84.448 42.3188C85.8554 43.3242 87.5521 43.8722 89.2923 43.8722C93.8927 43.8722 97.6353 40.1225 97.6353 35.5134C97.6353 30.9044 93.8927 27.1547 89.2923 27.1547C84.6918 27.1548 80.9492 30.9044 80.9492 35.5134H78.1174C78.1175 29.3402 83.1306 24.3177 89.2923 24.3176Z" fill="#080D0F"/>
<path d="M131.426 43.1249L125.673 29.6968H122.518L129.841 46.4569H132.935L140.257 29.6968H137.289L131.426 43.1249Z" fill="#080D0F"/>
<path d="M104.419 46.4569V29.8536H107.296V34.3649L107.015 33.2366C107.473 32.0879 108.245 31.2121 109.329 30.6052C110.412 30.0002 111.746 29.6968 113.332 29.6968V32.6093C113.206 32.5889 113.086 32.5787 112.972 32.5787H112.645C111.039 32.5787 109.768 33.0594 108.831 34.0187C107.894 34.98 107.424 36.367 107.424 38.1858V46.4569H104.421H104.419Z" fill="#080D0F"/>
<path d="M141.705 35.4524C141.705 33.8556 141.994 32.3586 142.569 30.9614C143.144 29.5663 143.917 28.387 144.886 27.4277C145.856 26.4664 147.007 25.7087 148.338 25.1527C149.67 24.5967 151.075 24.3176 152.548 24.3176C154.022 24.3176 155.425 24.5967 156.759 25.1527C158.09 25.7087 159.241 26.4684 160.21 27.4277C161.18 28.389 161.953 29.5663 162.528 30.9614C163.103 32.3566 163.392 33.8536 163.392 35.4524C163.392 37.0512 163.103 38.5828 162.528 39.9882C161.953 41.3935 161.18 42.587 160.21 43.5687C159.241 44.5504 158.09 45.3182 156.759 45.8743C155.427 46.4303 154.022 46.7093 152.548 46.7093C151.075 46.7093 149.672 46.4303 148.338 45.8743C147.007 45.3182 145.856 44.5504 144.886 43.5687C143.917 42.587 143.144 41.3956 142.569 39.9882C141.994 38.5828 141.705 37.0716 141.705 35.4524ZM144.581 35.4524C144.581 37.9005 145.354 39.9067 146.899 41.475C148.444 43.0433 150.326 43.8254 152.546 43.8254C154.766 43.8254 156.649 43.0412 158.194 41.475C159.739 39.9067 160.511 37.9005 160.511 35.4524C160.511 33.0042 159.739 31.0673 158.194 29.5214C156.649 27.9735 154.766 27.1996 152.546 27.1996C150.326 27.1996 148.444 27.9735 146.899 29.5214C145.354 31.0694 144.581 33.047 144.581 35.4524Z" fill="#080D0F"/>
<path d="M180.11 40.4592C180.11 42.1986 179.423 43.6386 178.051 44.7832C176.677 45.9237 174.943 46.496 172.841 46.496H164.872V43.7058H172.841C174.113 43.7058 175.071 43.3921 175.9 42.7648C176.728 42.1355 177.142 41.3493 177.142 40.3981C177.142 39.5468 176.75 38.8462 175.961 38.2881C175.174 37.7321 173.953 37.2921 172.298 36.9683C167.411 35.9988 164.969 33.8643 164.969 30.5669C164.969 28.8275 165.624 27.3876 166.937 26.2429C168.25 25.1003 169.923 24.53 171.96 24.53H179.927V27.3203H171.96C170.771 27.3203 169.852 27.6197 169.086 28.2165C168.319 28.8112 167.935 29.5872 167.935 30.5384C167.935 31.408 168.317 32.1148 169.086 32.6606C169.852 33.2065 171.084 33.6545 172.78 33.9967C175.162 34.4835 176.98 35.2799 178.232 36.3939C179.482 37.506 180.11 38.8625 180.11 40.4592Z" fill="#080D0F"/>
</g>
</g>
<path d="M134.942 68.7631C133.911 68.7631 132.997 68.5376 132.198 68.0866C131.399 67.6356 130.768 67.0171 130.304 66.2312C129.84 65.4323 129.608 64.5303 129.608 63.5253C129.608 62.5074 129.84 61.6054 130.304 60.8195C130.768 60.0335 131.399 59.4214 132.198 58.9833C132.997 58.5324 133.911 58.3069 134.942 58.3069C135.96 58.3069 136.869 58.5324 137.667 58.9833C138.479 59.4214 139.111 60.0335 139.562 60.8195C140.025 61.5926 140.257 62.4945 140.257 63.5253C140.257 64.5432 140.025 65.4452 139.562 66.2312C139.111 67.0171 138.479 67.6356 137.667 68.0866C136.869 68.5376 135.96 68.7631 134.942 68.7631ZM134.942 67.1395C135.599 67.1395 136.186 66.9914 136.701 66.695C137.229 66.3987 137.642 65.9799 137.938 65.4387C138.234 64.8847 138.383 64.2469 138.383 63.5253C138.383 62.7909 138.234 62.1595 137.938 61.6312C137.642 61.09 137.229 60.6713 136.701 60.3749C136.186 60.0786 135.599 59.9304 134.942 59.9304C134.285 59.9304 133.699 60.0786 133.183 60.3749C132.668 60.6713 132.256 61.09 131.947 61.6312C131.637 62.1595 131.483 62.7909 131.483 63.5253C131.483 64.2469 131.637 64.8847 131.947 65.4387C132.256 65.9799 132.668 66.3987 133.183 66.695C133.699 66.9914 134.285 67.1395 134.942 67.1395Z" fill="#377DE1"/>
<path d="M125.157 68.647V58.4035H127.012V68.647H125.157ZM126.085 56.432C125.724 56.432 125.421 56.3161 125.176 56.0842C124.944 55.8522 124.828 55.5688 124.828 55.2337C124.828 54.8859 124.944 54.5959 125.176 54.364C125.421 54.1321 125.724 54.0161 126.085 54.0161C126.445 54.0161 126.742 54.1321 126.974 54.364C127.219 54.5831 127.341 54.8601 127.341 55.1951C127.341 55.543 127.225 55.8393 126.993 56.0842C126.761 56.3161 126.458 56.432 126.085 56.432Z" fill="#377DE1"/>
<path d="M116.215 68.7629C115.223 68.7629 114.334 68.5438 113.548 68.1057C112.775 67.6676 112.163 67.0556 111.712 66.2696C111.261 65.4836 111.035 64.5688 111.035 63.5251C111.035 62.4814 111.261 61.573 111.712 60.7999C112.163 60.014 112.775 59.4019 113.548 58.9638C114.334 58.5257 115.223 58.3067 116.215 58.3067C117.078 58.3067 117.858 58.5 118.554 58.8865C119.25 59.2731 119.804 59.8529 120.216 60.626C120.641 61.3991 120.854 62.3655 120.854 63.5251C120.854 64.6848 120.648 65.6511 120.235 66.4242C119.836 67.1973 119.288 67.7836 118.592 68.183C117.897 68.5696 117.104 68.7629 116.215 68.7629ZM116.37 67.1394C117.014 67.1394 117.594 66.9912 118.109 66.6948C118.638 66.3985 119.05 65.9797 119.346 65.4385C119.655 64.8845 119.81 64.2467 119.81 63.5251C119.81 62.7907 119.655 62.1593 119.346 61.631C119.05 61.0899 118.638 60.6711 118.109 60.3747C117.594 60.0784 117.014 59.9302 116.37 59.9302C115.713 59.9302 115.126 60.0784 114.611 60.3747C114.096 60.6711 113.683 61.0899 113.374 61.631C113.065 62.1593 112.91 62.7907 112.91 63.5251C112.91 64.2467 113.065 64.8845 113.374 65.4385C113.683 65.9797 114.096 66.3985 114.611 66.6948C115.126 66.9912 115.713 67.1394 116.37 67.1394ZM119.868 68.6469V65.8831L119.984 63.5058L119.791 61.1285V54.3059H121.646V68.6469H119.868Z" fill="#377DE1"/>
<path d="M103.212 68.7631C102.336 68.7631 101.563 68.602 100.893 68.2799C100.236 67.9578 99.7205 67.4682 99.3468 66.811C98.9861 66.141 98.8057 65.3035 98.8057 64.2984V58.4036H100.661V64.0858C100.661 65.0909 100.899 65.8446 101.376 66.3472C101.866 66.8497 102.549 67.1009 103.425 67.1009C104.069 67.1009 104.63 66.9721 105.106 66.7144C105.583 66.4438 105.95 66.0573 106.208 65.5547C106.466 65.0393 106.595 64.4209 106.595 63.6993V58.4036H108.45V68.6471H106.691V65.8833L106.981 66.6177C106.646 67.3007 106.144 67.8289 105.474 68.2026C104.804 68.5763 104.05 68.7631 103.212 68.7631Z" fill="#377DE1"/>
<path d="M94.4172 68.7631C93.3864 68.7631 92.5875 68.4861 92.0205 67.9321C91.4536 67.378 91.1701 66.5856 91.1701 65.5548V56.1616H93.0256V65.4775C93.0256 66.0315 93.1609 66.4567 93.4315 66.7531C93.7149 67.0494 94.1144 67.1976 94.6298 67.1976C95.2096 67.1976 95.6928 67.0366 96.0793 66.7144L96.6591 68.048C96.3757 68.2928 96.0342 68.4732 95.6348 68.5892C95.2482 68.7052 94.8424 68.7631 94.4172 68.7631ZM89.4307 59.9305V58.4036H95.9634V59.9305H89.4307Z" fill="#377DE1"/>
<path d="M83.109 68.8014C82.0782 68.8014 81.0925 68.6468 80.1519 68.3375C79.2113 68.0154 78.4704 67.6031 77.9292 67.1006L78.6443 65.593C79.1597 66.044 79.8169 66.4176 80.6157 66.714C81.4146 67.0104 82.2457 67.1585 83.109 67.1585C83.895 67.1585 84.5328 67.0683 85.0224 66.888C85.512 66.7076 85.8728 66.4627 86.1047 66.1535C86.3367 65.8314 86.4526 65.4706 86.4526 65.0712C86.4526 64.6073 86.298 64.2336 85.9888 63.9502C85.6924 63.6667 85.2994 63.4412 84.8098 63.2737C84.333 63.0933 83.8048 62.9387 83.2249 62.8099C82.6451 62.681 82.0588 62.5328 81.4661 62.3653C80.8863 62.1849 80.3516 61.9594 79.8619 61.6889C79.3852 61.4183 78.9987 61.0575 78.7023 60.6065C78.4059 60.1427 78.2578 59.5499 78.2578 58.8284C78.2578 58.1326 78.4382 57.4948 78.7989 56.915C79.1726 56.3223 79.7395 55.852 80.4998 55.5041C81.2729 55.1433 82.2521 54.9629 83.4375 54.9629C84.2235 54.9629 85.0031 55.066 85.7762 55.2721C86.5493 55.4783 87.2193 55.7746 87.7862 56.1612L87.1484 57.7074C86.5686 57.3208 85.9565 57.0438 85.3123 56.8763C84.6681 56.6959 84.0431 56.6057 83.4375 56.6057C82.6773 56.6057 82.0524 56.7024 81.5628 56.8956C81.0731 57.0889 80.7124 57.3466 80.4804 57.6687C80.2614 57.9909 80.1519 58.3516 80.1519 58.7511C80.1519 59.2278 80.3 59.6079 80.5964 59.8914C80.9056 60.1749 81.2986 60.4004 81.7754 60.5679C82.265 60.7354 82.7997 60.89 83.3796 61.0317C83.9594 61.1606 84.5392 61.3087 85.119 61.4763C85.7117 61.6438 86.2465 61.8628 86.7232 62.1334C87.2128 62.404 87.6058 62.7648 87.9022 63.2157C88.1985 63.6667 88.3467 64.2465 88.3467 64.9552C88.3467 65.6381 88.1599 66.2759 87.7862 66.8686C87.4126 67.4484 86.8327 67.9188 86.0467 68.2795C85.2736 68.6274 84.2944 68.8014 83.109 68.8014Z" fill="#377DE1"/>
<defs>
<filter id="filter0_f_1108_28730" x="-37.8533" y="34.0881" width="142.301" height="78.2977" filterUnits="userSpaceOnUse" color-interpolation-filters="sRGB">
<feFlood flood-opacity="0" result="BackgroundImageFix"/>
<feBlend mode="normal" in="SourceGraphic" in2="BackgroundImageFix" result="shape"/>
<feGaussianBlur stdDeviation="12.72" result="effect1_foregroundBlur_1108_28730"/>
</filter>
<filter id="filter1_f_1108_28730" x="-37.832" y="-28.1403" width="146.37" height="111.191" filterUnits="userSpaceOnUse" color-interpolation-filters="sRGB">
<feFlood flood-opacity="0" result="BackgroundImageFix"/>
<feBlend mode="normal" in="SourceGraphic" in2="BackgroundImageFix" result="shape"/>
<feGaussianBlur stdDeviation="15.15" result="effect1_foregroundBlur_1108_28730"/>
</filter>
<filter id="filter2_d_1108_28730" x="13.4637" y="24.054" width="46.1449" height="49.392" filterUnits="userSpaceOnUse" color-interpolation-filters="sRGB">
<feFlood flood-opacity="0" result="BackgroundImageFix"/>
<feColorMatrix in="SourceAlpha" type="matrix" values="0 0 0 0 0 0 0 0 0 0 0 0 0 0 0 0 0 0 127 0" result="hardAlpha"/>
<feOffset dx="0.72" dy="2.25"/>
<feGaussianBlur stdDeviation="3.348"/>
<feComposite in2="hardAlpha" operator="out"/>
<feColorMatrix type="matrix" values="0 0 0 0 0 0 0 0 0 0 0 0 0 0 0 0 0 0 0.89 0"/>
<feBlend mode="normal" in2="BackgroundImageFix" result="effect1_dropShadow_1108_28730"/>
<feBlend mode="normal" in="SourceGraphic" in2="effect1_dropShadow_1108_28730" result="shape"/>
</filter>
<linearGradient id="paint0_linear_1108_28730" x1="50.2508" y1="30.1967" x2="35.8161" y2="64.5" gradientUnits="userSpaceOnUse">
<stop stop-color="#FFD650"/>
<stop offset="1" stop-color="white" stop-opacity="0.6"/>
</linearGradient>
<clipPath id="clip0_1108_28730">
<rect x="5.81567" y="16.5" width="60" height="60" rx="14.4" fill="white"/>
</clipPath>
<clipPath id="clip1_1108_28730">
<rect width="102.255" height="24.848" fill="white" transform="translate(77.9292 24.1982)"/>
</clipPath>
<clipPath id="clip2_1108_28730">
<rect width="102.255" height="24.848" fill="white" transform="translate(77.9292 24.1982)"/>
</clipPath>
</defs>
</svg>
