<svg width="186" height="93" viewBox="0 0 186 93" fill="none" xmlns="http://www.w3.org/2000/svg">
<g clip-path="url(#clip0_1670_58489)">
<rect x="19.8267" y="21.2637" width="50.4726" height="50.4726" rx="12.6181" fill="#080D0F"/>
<g filter="url(#filter0_f_1670_58489)">
<ellipse cx="53.969" cy="75.6042" rx="30.9106" ry="35.4871" transform="rotate(-180 53.969 75.6042)" fill="#377DE1"/>
</g>
<g filter="url(#filter1_f_1670_58489)">
<circle cx="53.9691" cy="19.5053" r="19.5016" transform="rotate(-180 53.9691 19.5053)" fill="#FFC814"/>
</g>
<path d="M45.0631 31.6399C52.5178 31.6399 58.5831 37.705 58.5831 45.1598C58.5831 52.6145 52.5179 58.68 45.0631 58.68C42.5599 58.68 40.1134 57.9817 38.0009 56.6878L36.3049 61.3606H32.6377L36.6565 50.2954H40.3213L39.2023 53.3778C40.905 54.5919 42.9577 55.2536 45.0631 55.2536C50.629 55.2536 55.1569 50.7256 55.1569 45.1598C55.1569 39.5939 50.6289 35.0659 45.0631 35.0659C39.4973 35.066 34.9693 39.5939 34.9692 45.1598H31.5432C31.5433 37.705 37.6084 31.6399 45.0631 31.6399Z" fill="white"/>
</g>
<path d="M80.3938 44.5694V28.8784H86.8489C88.2378 28.8784 89.4309 29.104 90.4251 29.5521C91.4194 30.0003 92.1851 30.6443 92.7222 31.4782C93.2594 32.3152 93.5295 33.3094 93.5295 34.4609C93.5295 35.6124 93.2594 36.6067 92.7222 37.4436C92.1851 38.2805 91.4194 38.9245 90.4251 39.3727C89.4309 39.8208 88.2408 40.0434 86.8489 40.0434H82.0083L83.3082 38.6752V44.5694H80.3938ZM83.3082 38.9869L82.0083 37.5742H86.7153C88.0004 37.5742 88.9679 37.3011 89.6179 36.755C90.2678 36.209 90.5913 35.4433 90.5913 34.4579C90.5913 33.4726 90.2678 32.6861 89.6179 32.149C88.9679 31.6118 88.0004 31.3417 86.7153 31.3417H82.0083L83.3082 29.9053V38.9839V38.9869Z" fill="black"/>
<path d="M96.4438 44.5694V28.8784H102.899C104.288 28.8784 105.481 29.104 106.475 29.5521C107.469 30.0003 108.235 30.6443 108.772 31.4782C109.309 32.3152 109.58 33.3094 109.58 34.4609C109.58 35.6124 109.309 36.6007 108.772 37.4317C108.235 38.2597 107.469 38.8978 106.475 39.3371C105.481 39.7793 104.291 39.9989 102.899 39.9989H98.0584L99.3583 38.6752V44.5694H96.4438ZM99.3583 38.9869L98.0584 37.5979H102.765C104.05 37.5979 105.018 37.3219 105.668 36.7699C106.318 36.2179 106.644 35.4462 106.644 34.4609C106.644 33.4756 106.318 32.6891 105.668 32.1519C105.018 31.6148 104.05 31.3447 102.765 31.3447H98.0584L99.3583 29.9083V38.9869ZM106.71 44.5694L102.742 38.877H105.858L109.847 44.5694H106.71Z" fill="black"/>
<path d="M112.829 44.5694V28.8784H115.744V44.5694H112.829Z" fill="black"/>
<path d="M124.888 44.5694L118.029 28.8784H121.19L127.31 43.0676H125.493L131.681 28.8784H134.596L127.758 44.5694H124.888Z" fill="black"/>
<path d="M143.449 44.7914C142.223 44.7914 141.096 44.5896 140.066 44.186C139.036 43.7824 138.14 43.2185 137.377 42.4943C136.614 41.7702 136.023 40.9184 135.605 39.939C135.187 38.9596 134.976 37.8882 134.976 36.7219C134.976 35.5555 135.184 34.4841 135.605 33.5048C136.023 32.5254 136.614 31.6736 137.377 30.9494C138.14 30.2253 139.036 29.6614 140.066 29.2578C141.096 28.8542 142.217 28.6523 143.428 28.6523C144.639 28.6523 145.779 28.8542 146.803 29.2578C147.827 29.6614 148.72 30.2253 149.483 30.9494C150.245 31.6736 150.833 32.5254 151.254 33.5048C151.673 34.4841 151.881 35.5555 151.881 36.7219C151.881 37.8882 151.67 38.9626 151.254 39.9509C150.836 40.9362 150.245 41.788 149.483 42.5062C148.72 43.2244 147.827 43.7824 146.803 44.186C145.779 44.5896 144.663 44.7914 143.452 44.7914H143.449ZM143.428 42.2361C144.221 42.2361 144.954 42.1026 145.624 41.8325C146.295 41.5624 146.88 41.1796 147.373 40.678C147.865 40.1764 148.251 39.5947 148.527 38.93C148.803 38.2652 148.943 37.5291 148.943 36.7219C148.943 35.9146 148.806 35.1786 148.527 34.5138C148.251 33.849 147.865 33.2673 147.373 32.7658C146.88 32.2642 146.295 31.8813 145.624 31.6113C144.951 31.3412 144.221 31.2076 143.428 31.2076C142.636 31.2076 141.909 31.3412 141.244 31.6113C140.579 31.8813 139.997 32.2642 139.496 32.7658C138.994 33.2673 138.608 33.849 138.329 34.5138C138.053 35.1786 137.914 35.9146 137.914 36.7219C137.914 37.5291 138.053 38.2473 138.329 38.9181C138.606 39.5888 138.991 40.1764 139.484 40.678C139.977 41.1796 140.561 41.5624 141.232 41.8325C141.903 42.1026 142.636 42.2361 143.428 42.2361Z" fill="black"/>
<path d="M159.834 44.7914C158.608 44.7914 157.436 44.6163 156.314 44.2631C155.192 43.9129 154.305 43.4589 153.646 42.9068L154.655 40.6424C155.284 41.1351 156.059 41.5476 156.988 41.874C157.914 42.2035 158.864 42.3667 159.834 42.3667C160.656 42.3667 161.321 42.2777 161.829 42.0966C162.336 41.9186 162.71 41.6752 162.947 41.3695C163.188 41.0638 163.307 40.7166 163.307 40.3278C163.307 39.85 163.134 39.4642 162.79 39.1733C162.446 38.8825 162.001 38.651 161.455 38.4788C160.909 38.3067 160.303 38.1464 159.638 37.9981C158.974 37.8497 158.309 37.6716 157.644 37.4698C156.979 37.268 156.374 37.0068 155.828 36.6863C155.282 36.3657 154.836 35.9354 154.495 35.3982C154.151 34.861 153.979 34.1725 153.979 33.3356C153.979 32.4987 154.207 31.7033 154.661 30.994C155.118 30.2847 155.813 29.7148 156.748 29.2904C157.683 28.8631 158.867 28.6523 160.3 28.6523C161.241 28.6523 162.176 28.7711 163.102 29.0115C164.028 29.2518 164.835 29.5931 165.524 30.0413L164.604 32.3057C163.9 31.8873 163.176 31.5786 162.428 31.3768C161.68 31.175 160.962 31.0741 160.276 31.0741C159.469 31.0741 158.816 31.172 158.315 31.3649C157.813 31.5608 157.448 31.8131 157.217 32.1277C156.985 32.4423 156.869 32.7984 156.869 33.205C156.869 33.6828 157.038 34.0686 157.374 34.3595C157.709 34.6503 158.151 34.8789 158.698 35.0421C159.244 35.2053 159.852 35.3686 160.523 35.5229C161.196 35.6802 161.864 35.8553 162.529 36.0512C163.194 36.247 163.799 36.4993 164.345 36.8139C164.891 37.1285 165.331 37.5529 165.669 38.093C166.004 38.6302 166.174 39.3098 166.174 40.1319C166.174 40.954 165.945 41.7435 165.491 42.4528C165.034 43.1621 164.336 43.7289 163.396 44.1563C162.455 44.5807 161.265 44.7944 159.831 44.7944L159.834 44.7914Z" fill="black"/>
<path d="M114.281 64.2229L110.191 53.219H112.081L115.714 63.1848H114.821L118.6 53.219H120.282L123.977 63.1848H123.105L126.822 53.219H128.607L124.496 64.2229H122.586L119.119 55.1291H119.7L116.191 64.2229H114.281Z" fill="#377DE1"/>
<path d="M103.794 64.3475C102.687 64.3475 101.704 64.1053 100.846 63.6208C99.9874 63.1364 99.3092 62.472 98.8109 61.6277C98.3126 60.7695 98.0635 59.8006 98.0635 58.721C98.0635 57.6275 98.3126 56.6586 98.8109 55.8143C99.3092 54.97 99.9874 54.3125 100.846 53.8419C101.704 53.3575 102.687 53.1152 103.794 53.1152C104.887 53.1152 105.863 53.3575 106.721 53.8419C107.593 54.3125 108.271 54.97 108.756 55.8143C109.254 56.6448 109.503 57.6137 109.503 58.721C109.503 59.8145 109.254 60.7834 108.756 61.6277C108.271 62.472 107.593 63.1364 106.721 63.6208C105.863 64.1053 104.887 64.3475 103.794 64.3475ZM103.794 62.6035C104.5 62.6035 105.13 62.4443 105.683 62.126C106.251 61.8076 106.694 61.3578 107.012 60.7764C107.33 60.1813 107.489 59.4961 107.489 58.721C107.489 57.932 107.33 57.2538 107.012 56.6863C106.694 56.105 106.251 55.6551 105.683 55.3368C105.13 55.0184 104.5 54.8592 103.794 54.8592C103.088 54.8592 102.458 55.0184 101.904 55.3368C101.351 55.6551 100.908 56.105 100.576 56.6863C100.243 57.2538 100.077 57.932 100.077 58.721C100.077 59.4961 100.243 60.1813 100.576 60.7764C100.908 61.3578 101.351 61.8076 101.904 62.126C102.458 62.4443 103.088 62.6035 103.794 62.6035Z" fill="#377DE1"/>
<path d="M93.282 64.2231V48.8176H95.2751V64.2231H93.282Z" fill="#377DE1"/>
<path d="M82.2624 56.5619H89.7575V58.3475H82.2624V56.5619ZM82.47 64.2232H80.3938V49.6897H90.6503V51.496H82.47V64.2232Z" fill="#377DE1"/>
<defs>
<filter id="filter0_f_1670_58489" x="6.90713" y="23.966" width="94.1237" height="103.277" filterUnits="userSpaceOnUse" color-interpolation-filters="sRGB">
<feFlood flood-opacity="0" result="BackgroundImageFix"/>
<feBlend mode="normal" in="SourceGraphic" in2="BackgroundImageFix" result="shape"/>
<feGaussianBlur stdDeviation="8.07561" result="effect1_foregroundBlur_1670_58489"/>
</filter>
<filter id="filter1_f_1670_58489" x="18.3163" y="-16.1476" width="71.3056" height="71.3056" filterUnits="userSpaceOnUse" color-interpolation-filters="sRGB">
<feFlood flood-opacity="0" result="BackgroundImageFix"/>
<feBlend mode="normal" in="SourceGraphic" in2="BackgroundImageFix" result="shape"/>
<feGaussianBlur stdDeviation="8.07561" result="effect1_foregroundBlur_1670_58489"/>
</filter>
<clipPath id="clip0_1670_58489">
<rect x="19.8267" y="21.2637" width="50.4726" height="50.4726" rx="12.6181" fill="white"/>
</clipPath>
</defs>
</svg>
