<svg width="678" height="240" viewBox="0 0 678 240" fill="none" xmlns="http://www.w3.org/2000/svg">
<path d="M111.83 120C116.34 120 120 123.66 120 128.17V171.83C120 176.34 116.34 180 111.83 180H90C81.71 180 74.21 183.36 68.79 188.79C63.36 194.22 60 201.72 60 210V231.83C60 236.34 56.34 240 51.8301 240H8.16992C3.65998 240 4.12773e-05 236.34 0 231.83V188.17C4.1276e-05 183.66 3.65998 180 8.16992 180H30C38.28 180 45.78 176.64 51.21 171.21C56.64 165.78 60 158.28 60 150V128.17C60 123.66 63.66 120 68.1699 120H111.83ZM171.83 0C176.34 4.1276e-05 180 3.65998 180 8.16992V51.8301C180 56.34 176.34 60 171.83 60H90C81.71 60 74.21 63.36 68.79 68.79C63.36 74.22 60 81.72 60 90V111.83C60 116.34 56.34 120 51.8301 120H8.16992C3.65998 120 4.12773e-05 116.34 0 111.83V68.1699C4.1276e-05 63.66 3.65998 60 8.16992 60H30C38.28 60 45.78 56.64 51.21 51.21C56.64 45.78 60 38.28 60 30V8.16992C60 3.65998 63.66 4.12773e-05 68.1699 0H171.83Z" fill="url(#paint0_radial_1127_29084)"/>
<path d="M220 108.891V25.2062H254.427C261.835 25.2062 268.198 26.4091 273.5 28.7992C278.803 31.1893 282.887 34.6241 285.752 39.0719C288.617 43.5355 290.057 48.838 290.057 54.9795C290.057 61.1209 288.617 66.4235 285.752 70.8871C282.887 75.3507 278.803 78.7855 273.5 81.1756C268.198 83.5657 261.851 84.7528 254.427 84.7528H228.611L235.544 77.4559V108.891H220ZM235.544 79.1179L228.611 71.5835H253.715C260.569 71.5835 265.729 70.1273 269.195 67.2149C272.661 64.3024 274.387 60.2187 274.387 54.9636C274.387 49.7086 272.661 45.5141 269.195 42.6491C265.729 39.7842 260.569 38.3438 253.715 38.3438H228.611L235.544 30.6828V79.102V79.1179Z" fill="white"/>
<path d="M305.601 108.891V25.2062H340.028C347.436 25.2062 353.799 26.4091 359.101 28.7992C364.404 31.1893 368.488 34.6241 371.353 39.0719C374.217 43.5355 375.658 48.838 375.658 54.9795C375.658 61.1209 374.217 66.3918 371.353 70.8237C368.488 75.2399 364.404 78.643 359.101 80.9856C353.799 83.344 347.451 84.5153 340.028 84.5153H314.212L321.144 77.4559V108.891H305.601ZM321.144 79.1179L314.212 71.7101H339.316C346.169 71.7101 351.329 70.2381 354.796 67.294C358.262 64.3499 360.003 60.2345 360.003 54.9795C360.003 49.7244 358.262 45.5299 354.796 42.665C351.329 39.8 346.169 38.3596 339.316 38.3596H314.212L321.144 30.6986V79.1179ZM360.352 108.891L339.189 78.5322H355.809L377.082 108.891H360.352Z" fill="white"/>
<path d="M392.99 108.891V25.2062H408.533V108.891H392.99Z" fill="white"/>
<path d="M457.301 108.891L420.721 25.2062H437.578L470.217 100.882H460.53L493.532 25.2062H509.076L472.607 108.891H457.301Z" fill="white"/>
<path d="M556.293 110.075C549.756 110.075 543.741 108.999 538.249 106.846C532.756 104.693 527.976 101.686 523.908 97.8239C519.84 93.9617 516.691 89.419 514.459 84.1956C512.227 78.9722 511.103 73.2581 511.103 67.0375C511.103 60.817 512.211 55.1029 514.459 49.8795C516.691 44.6561 519.84 40.1134 523.908 36.2512C527.976 32.3891 532.756 29.3817 538.249 27.229C543.741 25.0763 549.725 24 556.183 24C562.641 24 568.719 25.0763 574.18 27.229C579.641 29.3817 584.405 32.3891 588.473 36.2512C592.541 40.1134 595.675 44.6561 597.923 49.8795C600.154 55.1029 601.262 60.817 601.262 67.0375C601.262 73.2581 600.139 78.988 597.923 84.2589C595.691 89.5139 592.541 94.0567 588.473 97.8872C584.405 101.718 579.641 104.693 574.18 106.846C568.719 108.999 562.767 110.075 556.309 110.075H556.293ZM556.183 96.4468C560.409 96.4468 564.319 95.7345 567.896 94.2941C571.473 92.8537 574.591 90.8119 577.219 88.1369C579.846 85.4619 581.904 82.3595 583.376 78.8139C584.848 75.2683 585.592 71.3429 585.592 67.0375C585.592 62.7322 584.864 58.8068 583.376 55.2612C581.904 51.7156 579.846 48.6132 577.219 45.9382C574.591 43.2632 571.473 41.2214 567.896 39.781C564.303 38.3406 560.409 37.6283 556.183 37.6283C551.956 37.6283 548.079 38.3406 544.533 39.781C540.987 41.2214 537.885 43.2632 535.21 45.9382C532.535 48.6132 530.477 51.7156 528.989 55.2612C527.517 58.8068 526.773 62.7322 526.773 67.0375C526.773 71.3429 527.517 75.1734 528.989 78.7506C530.461 82.3278 532.519 85.4619 535.147 88.1369C537.774 90.8119 540.892 92.8537 544.47 94.2941C548.047 95.7345 551.956 96.4468 556.183 96.4468Z" fill="white"/>
<path d="M643.682 110.075C637.145 110.075 630.893 109.141 624.91 107.258C618.926 105.39 614.194 102.968 610.68 100.024L616.061 87.9469C619.417 90.5744 623.548 92.7746 628.503 94.5157C633.441 96.2727 638.506 97.1432 643.682 97.1432C648.067 97.1432 651.612 96.6684 654.319 95.7029C657.026 94.7531 659.02 93.4552 660.286 91.8249C661.568 90.1946 662.202 88.3426 662.202 86.2691C662.202 83.7207 661.283 81.663 659.447 80.1118C657.611 78.5606 655.237 77.326 652.325 76.408C649.412 75.4899 646.183 74.6352 642.637 73.8438C639.092 73.0524 635.546 72.1027 632.001 71.0263C628.455 69.95 625.226 68.5571 622.314 66.8476C619.401 65.1381 617.027 62.843 615.207 59.978C613.371 57.1131 612.452 53.4409 612.452 48.9773C612.452 44.5137 613.671 40.2716 616.093 36.4886C618.531 32.7056 622.234 29.6666 627.22 27.4031C632.206 25.1238 638.522 24 646.167 24C651.185 24 656.171 24.6331 661.109 25.9153C666.048 27.1974 670.353 29.0176 674.025 31.4077L669.119 43.4848C665.367 41.253 661.505 39.6068 657.516 38.5305C653.527 37.4542 649.697 36.916 646.041 36.916C641.735 36.916 638.253 37.4383 635.578 38.4672C632.903 39.5119 630.956 40.8573 629.721 42.5351C628.487 44.2129 627.869 46.1123 627.869 48.2808C627.869 50.8292 628.772 52.8869 630.56 54.4381C632.349 55.9893 634.707 57.2081 637.62 58.0786C640.532 58.9492 643.777 59.8198 647.354 60.6429C650.947 61.4818 654.509 62.4156 658.054 63.4603C661.6 64.505 664.829 65.8504 667.741 67.5282C670.654 69.206 672.997 71.4695 674.801 74.3503C676.59 77.2152 677.492 80.84 677.492 85.2244C677.492 89.6089 676.273 93.8193 673.851 97.6023C671.414 101.385 667.694 104.409 662.676 106.688C657.659 108.951 651.311 110.091 643.666 110.091L643.682 110.075Z" fill="white"/>
<path d="M235.544 214.794H220V131.109H281.098V144.136H235.544V214.794ZM234.23 169.604H275.954V182.758H234.23V169.604Z" fill="white"/>
<path d="M296.151 214.794V131.109H311.694V201.641H355.444V214.794H296.151Z" fill="white"/>
<path d="M405.43 216C398.893 216 392.878 214.924 387.385 212.771C381.877 210.618 377.097 207.611 373.045 203.749C368.977 199.887 365.827 195.344 363.595 190.121C361.363 184.897 360.255 179.183 360.255 172.962C360.255 166.742 361.363 161.028 363.595 155.804C365.827 150.581 368.977 146.038 373.045 142.176C377.113 138.314 381.893 135.307 387.385 133.154C392.878 131.001 398.861 129.925 405.319 129.925C411.777 129.925 417.855 131.001 423.316 133.154C428.777 135.307 433.541 138.314 437.609 142.176C441.677 146.038 444.827 150.581 447.059 155.804C449.291 161.028 450.415 166.742 450.415 172.962C450.415 179.183 449.291 184.913 447.059 190.184C444.827 195.439 441.677 199.982 437.609 203.812C433.541 207.643 428.777 210.618 423.316 212.771C417.855 214.924 411.904 216 405.446 216H405.43ZM405.303 202.372C409.53 202.372 413.439 201.659 417.016 200.219C420.61 198.779 423.712 196.737 426.339 194.062C428.967 191.387 431.025 188.284 432.497 184.739C433.969 181.193 434.713 177.268 434.713 172.962C434.713 168.657 433.969 164.732 432.497 161.186C431.025 157.641 428.967 154.538 426.339 151.863C423.712 149.188 420.594 147.146 417.016 145.706C413.439 144.265 409.53 143.553 405.303 143.553C401.077 143.553 397.199 144.265 393.654 145.706C390.108 147.146 386.99 149.188 384.331 151.863C381.656 154.538 379.582 157.641 378.11 161.186C376.638 164.732 375.894 168.657 375.894 172.962C375.894 177.268 376.622 181.098 378.11 184.676C379.582 188.253 381.64 191.387 384.267 194.062C386.895 196.737 390.013 198.779 393.59 200.219C397.168 201.659 401.077 202.372 405.303 202.372Z" fill="white"/>
<path d="M483.972 214.794L456.241 131.109H472.386L497.126 206.785H489.116L514.822 131.109H529.163L554.156 206.785H546.384L571.725 131.109H586.557L558.825 214.794H542.332L519.491 146.526H523.797L500.608 214.794H483.988H483.972Z" fill="white"/>
<defs>
<radialGradient id="paint0_radial_1127_29084" cx="0" cy="0" r="1" gradientUnits="userSpaceOnUse" gradientTransform="translate(205.305 91.0314) rotate(172.255) scale(271.481 271.481)">
<stop offset="0.170981" stop-color="#FFC814"/>
<stop offset="0.737977" stop-color="#377DE1"/>
</radialGradient>
</defs>
</svg>
